<?xml version="1.0" encoding="UTF-8"?>
<svg id="Layer_1" xmlns="http://www.w3.org/2000/svg" version="1.1" viewBox="0 0 988.8 989.6">
  <!-- Generator: Adobe Illustrator 30.1.0, SVG Export Plug-In . SVG Version: 2.1.1 Build 136)  -->
  <defs>
    <style>
      .st0 {
        fill: #1e0101;
      }

      .st1 {
        fill: #700000;
      }

      .st2 {
        fill: #b90000;
      }

      .st3 {
        fill: #b00;
      }

      .st4 {
        fill: #1d0000;
      }
    </style>
  </defs>
  <path class="st0" d="M521.5,989.6h-55.9c4.1-.4-13.5-1.9-14.1-1.9-110.9-9.4-215.1-56.4-295.9-132.6C64.1,769,8.6,651.5.9,526.1c0-.8-.5-1.1-.9-1v-59.9C19.4,213,207.1,22.8,464.4,1.6l9.2-.8c14-1.2,27.8-1.1,41.8,0l9.2.7c255.2,20.1,443.4,208.2,463.5,463.5l.7,9.1c1.1,14,1.2,27.8,0,41.8l-.8,9.2c-21.4,258.8-211.2,444.8-466.5,464.5ZM495,969.4c129.1-.1,253.1-53.5,341.7-146,85.2-88.9,132.9-208,132.1-331.3-.8-125.4-51.8-246.3-140.9-334.3C739.8,70.9,620.4,21.4,496.5,20.9c-125.5-.5-246.8,49.3-335.8,137.5C70.7,247.5,19.7,370.2,20.2,497.1c.6,125.8,51.6,247,141,335.3,88.4,87.3,208.5,137.1,333.8,137Z"/>
  <path class="st2" d="M495,969.4c-125.2.1-245.4-49.7-333.8-137C71.8,744.1,20.8,622.9,20.2,497.1c-.6-126.9,50.5-249.6,140.4-338.8C249.7,70.1,371,20.3,496.5,20.9c123.9.5,243.3,50,331.3,137,89.1,88,140.1,208.8,140.9,334.3.8,123.3-46.9,242.4-132.1,331.3-88.6,92.5-212.5,145.8-341.7,146ZM814.7,811.3c84.1-84.6,127-198.9,132.2-316.2-5.2-119.3-50-236.1-136.3-320.3-83.4-81.3-198.8-130.3-316.1-130.3-117.2,0-232.7,49-316,130.3S47.4,375.8,42.1,495.1c5.2,119.3,50,236.1,136.3,320.3,83.3,81.3,198.8,130.4,316.1,130.4,118.8,0,236.6-50.5,320.1-134.5Z"/>
  <path class="st4" d="M814.7,811.3c-83.6,84-201.3,134.5-320.1,134.5-117.3,0-232.8-49.1-316.1-130.4-86.4-84.3-131.1-201-136.3-320.3,5.3-119.3,50-236.1,136.3-320.3C261.8,93.5,377.3,44.4,494.5,44.4c117.3,0,232.7,49,316.1,130.3,86.4,84.2,131.1,201,136.3,320.3-5.2,117.3-48.1,231.6-132.2,316.2ZM641,147.3c-99.4-11.6-182.8,69.3-177,166.4,5,84.1,74.7,149,157.9,149.2,83.7.1,153-65,158.4-148.3,5.4-83.1-55.1-157.5-139.3-167.3ZM471,432.2c2.4-5.4,4.8-10.3,5.8-16-28.7-35.2-38-77.4-37-122,.1-5.8,1.7-11,.7-16.7-46.6-43.5-117.2-48.3-169.1-11.8-51,35.8-71.3,102.3-47.5,161,22.9,56.4,82.2,91.7,143.8,82.5,13.3-29.2,21.9-40.8,45-62,18.1-16.6,35.5-14.5,58.3-15.1ZM882.5,627.3c-1.3-12.9-1.2-24.8-3.8-37.1-8.3-39.5-34.5-124.2-80.3-133.3s-30.1-2.8-44.8.7-16,4.1-23.5,7.2l-35.9,15.1c-22.8,9.6-46.7,14.8-71.8,14.6-28.3-.2-54.6-7.8-80.2-18.9-10.4-4.5-19.8-9-30.4-12.8-20.4-7.4-41.9-10.2-63.4-6-22,4.3-38.7,26.6-49,45-19.1,34.2-30.7,79.4-38,117.8-2.8,9.9-3.6,19.1-5.8,29.4-15.8,75.9-29.8,151.4-42.5,228.7,48.9,23.4,100.6,38,154.2,44.1,18.4,2.1,35.1,2.4,53.4,0,102.6-11,198.9-55.1,274.4-125.3,28.4-30.5,53-64.2,72.3-101.1,3.6-6.9,5.8-13.7,8.3-20.9,5.3-15.2,8.4-30.8,6.7-47.4ZM290.6,866.8c13.2-78.9,26.9-154.4,43-230.8l5.5-28c4.5-23.8,9.9-46.7,17.5-70.1-23,.5-44.9-3.2-65.8-12l-33.8-14.3c-18.7-7.1-38.6-10.3-58.2-5.4-11.5,2.9-20.4,11-27.8,20-22.5,27.5-35.1,73.9-42.3,108.6-4.3,20.8-5.7,41.8-.3,62.3,2.8,10.8,5.5,21.1,11.4,30.6,15.4,24.9,33.2,47.3,53,69,29.8,27.3,61.9,50.8,97.8,70Z"/>
  <path class="st3" d="M882.5,627.3c1.6,16.6-1.4,32.2-6.7,47.4s-4.7,14-8.3,20.9c-19.3,36.9-43.8,70.6-72.3,101.1-75.6,70.2-171.9,114.3-274.4,125.3-18.3,2.4-35,2-53.4,0-53.6-6-105.3-20.7-154.2-44.1,12.7-77.4,26.8-152.8,42.5-228.7,2.1-10.3,3-19.5,5.8-29.4,7.3-38.4,18.9-83.7,38-117.8,10.3-18.4,27-40.7,49-45,21.5-4.2,43-1.5,63.4,6s20,8.3,30.4,12.8c25.6,11.1,51.9,18.7,80.2,18.9,25.1.2,49-5,71.8-14.6l35.9-15.1c7.6-3.2,15.4-5.3,23.5-7.2,14.7-3.5,30-3.6,44.8-.7,45.8,9.1,72.1,93.8,80.3,133.3,2.6,12.3,2.5,24.2,3.8,37.1Z"/>
  <path class="st3" d="M641,147.3c84.3,9.9,144.7,84.2,139.3,167.3-5.4,83.2-74.7,148.4-158.4,148.3-83.2-.1-152.9-65.1-157.9-149.2-5.8-97.1,77.6-178.1,177-166.4Z"/>
  <path class="st1" d="M290.6,866.8c-35.9-19.2-68-42.7-97.8-70-19.8-21.7-37.6-44-53-69s-8.5-19.9-11.4-30.6c-5.4-20.5-4-41.6.3-62.3,7.2-34.6,19.8-81.1,42.3-108.6,7.4-9,16.3-17.2,27.8-20,19.6-4.9,39.5-1.7,58.2,5.4l33.8,14.3c20.8,8.8,42.8,12.5,65.8,12-7.7,23.4-13,46.4-17.5,70.1l-5.5,28c-16.1,76.3-29.9,151.9-43,230.8Z"/>
  <path class="st1" d="M471,432.2c-22.8.6-40.2-1.5-58.3,15.1-23.1,21.2-31.8,32.7-45,62-61.6,9.2-120.9-26.1-143.8-82.5-23.8-58.7-3.5-125.2,47.5-161,51.9-36.5,122.6-31.7,169.1,11.8,1,5.7-.6,10.9-.7,16.7-1,44.5,8.3,86.8,37,122-1,5.7-3.4,10.5-5.8,16Z"/>
</svg>