<?xml version="1.0" encoding="UTF-8"?>
<svg id="Layer_1" xmlns="http://www.w3.org/2000/svg" version="1.1" viewBox="0 0 6846.2 990">
  <!-- Generator: Adobe Illustrator 30.1.0, SVG Export Plug-In . SVG Version: 2.1.1 Build 136)  -->
  <defs>
    <style>
      .st0 {
        fill: #270808;
      }

      .st1 {
        fill: #710000;
      }

      .st2 {
        fill: #ba0000;
      }

      .st3 {
        fill: #270d0d;
      }

      .st4 {
        fill: #1d0000;
      }
    </style>
  </defs>
  <path class="st3" d="M3362.6,990h-7.3s-1306.3,0-1306.3,0h-5.4s-1253.2,0-1253.2,0c40.8-19.9,80.1-44.3,114.7-75h1865.3s3650.6,0,3650.6,0h231.9s18.7,0,18.7,0c3.6,0,4.3,1.7,2.3,3.2s-2.7,2.6-4.5,4.1l-78.2,67.8h-3228.6ZM3941.1,925H909.2c-23.9,21.1-50.6,36.6-75.4,54.9h5754.3c0,0,58.8-51.6,58.8-51.6.6-1,2-2.1,1.7-2.5s-1.7-.9-3.8-.9h-489.7s-2204.4,0-2204.4,0h-4.8s-4.8,0-4.8,0Z"/>
  <path class="st3" d="M6076.9,768.9h766.9c0,0-84.3,75.1-84.3,75.1H1281s-303.5-.5-303.5-.5c19.5-25.7,36.2-45.8,49.9-70.4,2.1-3.8,4.2-4.2,9.8-4.2h5039.7ZM5108.1,834h1646.5s56.9-49.4,56.9-49.4c4.5-3.9,4.9-4.5,4-4.8-1.6-.5-2.5-.7-4.1-.8l-4.1-.2h-4s-4,0-4,0h-4s-4,0-4,0h-4s-4,0-4,0h-4s-4,0-4,0h-4s-4,0-4,0h-4s-4,0-4,0h-4s-4,0-4,0h-4.5s-616.8,0-616.8,0h-4.5s-4.6,0-4.6,0h-355.6s-1382.7,0-1382.7,0h-4.7s-4.1,0-4.1,0h-4s-4,0-4,0h-4s-4,0-4,0h-4s-4,0-4,0h-4s-5,0-5,0h-6.4s-3302.8,0-3302.8,0c7.1,0-18.2,33.9-16.8,31.8l-1.7,2.4-1.7,2.3-1.6,2.2-1.7,2.3-1.7,2.3-1.8,2.3-1.7,2.2-1.7,2.1c-1.2,1.6-2.3,3-1.6,4.8h2693.6s5.5,0,5.5,0h1378.3s4.6,0,4.6,0h4.1s4,0,4,0h4s4,0,4,0h4.1s6.4,0,6.4,0Z"/>
  <path class="st4" d="M4659.5,146h1955.6s140.8,0,140.8,0c8.6,4.6,22.8,18.2,32,26.1l22.5,19.3,22.6,19.5,7.7,6.6c1.4,1.2,2.6,2.4.6,3.1s-2.4.3-3.9.4h-4.5s-1505.4,0-1505.4,0h-2980.9s-1283.5,0-1283.5,0c-12.4,0-22.4.6-33.4-.7-11.8-20.5-24.2-38.5-38.5-56.4l-1.9-2.4-1.8-2.3-1.8-2.2-1.7-2.1-1.8-2.1c-1-1.2-1.7-2.1-2.7-3.2s-1.5-3.8,1.9-3.8h3678.3ZM6752.5,156H1005.3c-2.8,0-3.8,0-5.1.5s-1.4.9-.2,2.5c12.1,15.8,23.3,31.2,33.5,48.3s3.5,3.7,7.8,3.7h5774.3c-19.4-20.3-41.9-38.3-63-55Z"/>
  <path class="st4" d="M927.2,74.9h-6.7s-4.1,0-4.1,0h-4.1c-6.3.2-8.1-.5-12.2-4.2l-2.1-1.9-2.1-1.8-2.1-1.7-2.2-1.7-2.3-1.8-2.3-1.8-2.3-1.8-2.3-1.7-2.2-1.7-2.2-1.7-2.2-1.7-2.3-1.7-2.3-1.7-2.3-1.7-2.3-1.6-2.3-1.6-2.4-1.6-2.4-1.7-2.5-1.7-2.5-1.7-2.4-1.6-2.4-1.6-2.4-1.5-2.3-1.5-2.5-1.5c-19.9-12.3-30.9-17.1-50.3-28.6h5796c.1,0,5.4,4.6,5.1,4.3l2.1,1.9,2.3,1.9,2.3,1.9,2.2,1.9,2.1,1.8,2,1.8,2.1,1.8,2.2,1.9,2.2,1.8,2.2,1.8,2.1,1.9,2.2,1.9,2.2,1.9,2.2,1.9,2.1,1.8,2.1,1.8,2.1,1.8,2.1,1.9,2.1,1.8,2.1,1.8,2.2,1.8,2.2,1.9,2.2,1.9,2.1,1.9,2.1,1.9,2.1,1.8,2.1,1.8,2.1,1.8,11.8,10.2,2.2,1.8,2.3,1.9c.8.7,1.5,1.3,2.2,1.9,1.3,1.2,1.2,2-1.2,2.8H927.2ZM921.2,65h5715.3c3.7,0,6.6.6,8.4-1.3s-1.6-2.7-2.9-3.9l-2.1-1.9-2.2-1.9-2.2-1.9-12-10.2-26.8-23-2.1-1.9-2.2-1.9-2.2-2c-2.3-2.1-2.3-1.8-4.8-5.2h-2836.8s-4.8,0-4.8,0h-4.8s-2899.8,0-2899.8,0c-2.6,0-3.5,0-4.7,1.9,22.8,14.1,45.1,28.8,66.3,46.3s5.4,6.8,20.4,6.8Z"/>
  <path class="st4" d="M454.6,1.5c273.9-22.5,512.3,183,534,453.8,21.8,272-181.5,510.9-453,533.1C264.3,1010.7,25.5,808.9,1.9,537.8-21.8,266.3,180.3,24.1,454.6,1.5ZM495.6,969.7c132.8-.2,258.7-56,347.6-152.1,83.1-89.9,128.8-208.5,126.5-331.2-2.3-122.3-51.7-239-137.5-325.5C744.1,72.1,624,21.3,498.5,20.3c-133.7-1-262.5,55-352.6,153.2-165.1,179.7-167.6,454.2-5.3,637,89.2,100.5,218.5,159.3,354.9,159.1Z"/>
  <path class="st0" d="M2225.9,669.6l52.1-250-123,250.1-79.5.3-17.4-247.3-53.8,247-80.1.2,74.3-349.6,134.6-.2,13.6,231.6,109.9-231.5h135.7c0,.1-74.5,349.9-74.5,349.9l-92-.3ZM2288.6,420.1l-50.8,239.7h72.2s70.1-329.6,70.1-329.6h-117.4s-107.4,227.3-107.4,227.3c-3.1,4.6-7.2,5.6-11.9,4.7s-6.3-4.5-7.2-10.1l-12.4-222h-117.4c0,.1-70.1,329.6-70.1,329.6h60.1c0,0,52.8-246.2,52.8-246.2,1.2-5.8,7.5-6.9,11.5-6s7.5,4.3,7.8,9.5l16,242.9,64.4-.2,120.8-246.9c2.9-5.9,7.9-7.6,13.2-5.8s7.3,5.8,5.7,13.3Z"/>
  <path class="st0" d="M1463.2,544.5l-66.1-1.3,13.6-65h156.7c0-.1-40.9,191.7-40.9,191.7h-71.3c-.5-14.7,4.8-27.4,2.4-42.7-26.2,37.2-65.4,53.6-108.4,50.1-72.6-6-105.2-66.1-103.8-134.9.9-45.7,9.8-89.7,31.1-129.9s48.2-67.5,86.8-84.7c42.1-18.8,90.1-20.4,133.7-5.9,46,15.3,71.9,56.8,74.8,104.1l-86.3,5.6c-3.4-16.6-6.2-33.5-19-45.3s-41.5-13.5-59.2-1c-40.9,28.9-60.8,107-64,155-2.2,33.8,9.4,72.7,49.2,73,36.7.3,64.5-30.6,70.8-68.8ZM1462.7,533.7c5.8,0,11,5,10.3,10.8-5.7,44-40.7,83.1-86.5,78.4-43-4.4-55.9-47.4-53.1-84.3,3.7-49.6,22.9-121.9,60.8-155.9,21.6-19.4,52.9-23.1,76.5-6.4,13.2,11.3,19.1,26.7,22.6,44.6l67.4-4.2c-5.2-43.7-33.8-77.6-76.1-88.4-74-18.8-145.3,5.6-188.3,70.5s-39.7,91-40.8,141.7c-.5,22.7,1.8,43.9,9.8,64.4,14.9,38.2,48.5,61.1,89.2,62.9,38.6,1.7,73.1-14.3,95-46.7,3-4.4,8.1-7,12.9-5.5s7.3,5.9,6.8,10.9l-2.9,33.3h52.3s36.7-171.7,36.7-171.7h-136.5s-9.3,45-9.3,45l53.2.6Z"/>
  <path class="st0" d="M6161,669.9h-103.7c0,0-43.4-135.7-43.4-135.7l-53.7,54.8-17.1,80.9h-96.6c0,0,74.3-349.6,74.3-349.6h96.6c0-.1-31.7,154.8-31.7,154.8l134.5-155,103.7.6-131.6,147.8,68.8,201.3ZM6083.3,472.9c-1.6-4.7-.5-8.5,2.5-12.3l115.6-129.8-76.5-.9-133.4,154.1c-3.2,3.7-8.9,3-12,1.3-2.9-1.5-5.5-6.2-4.5-11.1l30.4-144h-76.6c0-.1-70.1,329.5-70.1,329.5l76.5.2,16.3-75.9,54.6-56.9c3-3.1,8-3.2,11.8-2s4.9,3.2,6.1,7.1l40.7,127.6,82.5-.3-63.8-186.6Z"/>
  <path class="st0" d="M3075.8,524.2c23.6,71.6-29.3,136.8-103.6,150.1-75.8,13.5-153.1-12.7-198.1-76.5l60-55.3c17.6,20.4,34.8,39.3,57.4,52.9,20.8,12.4,44.9,17.5,67.1,8.5,11.6-5,18.7-14.8,18.9-26.3.2-11.5-7.2-21.5-18.9-26.2l-71.2-28.4c-21.3-8.5-41.3-22.2-52.4-42.8-28-51.8-7.9-114.7,42.1-144.5,25.7-15.3,53.1-21.3,83.2-23.1,58-3.4,111.9,20.1,148.4,65.8l-57.3,53.2c-24.9-30.8-63.4-63.5-105.5-48.2s-18.9,13.5-19.5,24.5c-2.3,37.8,67.6,35.4,117.9,74.9,14,11,25.9,24.2,31.7,41.6ZM3033.3,636c28.3-23.3,42-57,36.9-93.6-8.9-64-90-77.5-131.5-98.7-14.4-7.4-23.1-20.5-22.4-36,.7-14.3,9.4-26.9,23.8-32.8,41.9-17.1,84.6,9.7,111.9,42.2l42.3-39.3c-32-37.9-78.9-56.9-128.1-55.4-31.3,1-60.5,6.7-86.4,23.3-33.3,21.3-50.9,56.6-47,95.7,10,99.5,155.5,73.2,154.6,136.2s-8.2,27.3-22,34c-21.9,10.7-46.3,8.1-68.7-2.1-24.8-12.1-44.2-30.4-63.2-52.4l-45.7,41.7c52.1,73.6,178.4,92.5,245.5,37.2Z"/>
  <path class="st0" d="M4388.7,524.1l-131.9.4-16.6,77.2,154.1.4-14.5,67.8h-251c0,0,74.3-350,74.3-350l251,.2-14.1,67.7-154.8.4-14.4,68.7,131.7.2-13.7,67.1ZM4380.8,514.1l9.4-47-118.3-.3c-7.7,0-12.3-6.3-10.8-13.2l13.9-66.2c1.1-5.1,4.7-9.3,10.8-9.3l146-.3,10.3-47.6h-231.1c0-.1-70,329.6-70,329.6h231.1c0,0,9.8-47.7,9.8-47.7l-140-.3c-4.5,0-7.9-2-9.9-4.9s-2-5.8-1.2-9.5l16.4-75.8c1-4.7,5.9-7.2,10.6-7.2l123-.5Z"/>
  <path class="st0" d="M6456.3,524.1l-131.9.4-16.6,77.2,154.1.4-14.5,67.8h-251c0-.1,74.3-350,74.3-350l251,.2-14.1,67.7-154.8.4-14.4,68.7,131.7.2-13.7,67.1ZM6448.4,514.1l9.4-47-118.3-.3c-7.6,0-12.3-6.3-10.8-13.2l14.3-67.7c.9-4.4,5.3-7.7,10.3-7.7l146.1-.3,10.3-47.6h-231.1c0-.1-70,329.6-70,329.6h231.1c0,0,9.8-47.7,9.8-47.7l-140-.3c-4.5,0-7.9-2-9.9-4.9s-2-5.8-1.2-9.5l16.4-75.8c1-4.7,5.9-7.2,10.6-7.2l123-.5Z"/>
  <path class="st0" d="M2630,524.3l-131.9.3-16.5,77,153.7.5-14,67.8h-251.1c0-.1,74.5-350.1,74.5-350.1l250.9.2-14.3,67.8h-154.3c0,.1-14.9,68.8-14.9,68.8l132.1.4-14.1,67.2ZM2622.1,514.2l9.7-47.1-117.7-.2c-7.1,0-13.2-5-11.7-12.3l14.6-69.4c1-4.6,6.5-7.1,11.2-7.1l145-.2,9.7-47.8h-230.6c0,0-70.1,329.8-70.1,329.8h230.9c0,.1,9.8-47.7,9.8-47.7l-140.5-.2c-7.3,0-12-6.4-10.5-13.4l16.4-76c.9-4.4,5.1-7.9,9.8-7.9l123.9-.5Z"/>
  <path class="st0" d="M5623.3,534.2c-2.4,25.4,1.2,62.1,26.8,74.1,23.6,11,50.4,3.4,67.1-16.2,13.5-15.5,21.5-33.5,29-54l86.2,11.7c-16,54.5-51.7,101.7-106.1,118.9-34.3,10.8-69.9,11.9-104.8,3.4s-82.7-48.1-92.5-97.2c-18.6-92.4,21.1-208.9,113.9-248.5,39.1-16.7,82.5-18.5,123.1-6.6,54.5,16,81.2,65.3,84.4,119.6l-89.2,7.2c-2.9-27.6-7.9-68.7-44-70s-31.6,6.7-42.7,19c-29.5,32.7-47,95.1-51.2,138.7ZM5613.3,534.3c4.6-46.4,23-112.8,55.2-147,13.8-14.6,32.7-22.4,52.8-20.4,36.5,3.8,44.3,38.9,49,68.7l69.2-5.4c-7.8-64.8-45-101.9-110.1-107.4-61.2-5.2-117.7,19.8-153.3,70.9-36.6,52.7-50.5,120.8-36.2,183.8,9.8,43.2,41.9,74.3,83.7,84.8,29.1,7.3,58.8,6.8,87.8.2,52.8-12.1,90.3-53.4,107.5-104.4l-66.1-9.1c-7.3,18-14.8,33.9-26.7,48-15.9,19.5-39.6,29.4-64.5,25.4-42.3-6.8-51.9-51.6-48.3-88.1Z"/>
  <path class="st0" d="M3209.8,534.2c-2.5,26,1.4,63.4,28.1,74.7,24.6,10.4,51.3,1.6,67.6-19.1,12.4-15.1,20-32.2,27.2-51.8l86.2,11.7c-16,54.5-51.7,101.7-106.1,118.9-34.3,10.8-69.9,11.9-104.8,3.4-48-11.7-82.7-48.1-92.5-97.2-18.6-92.4,21.1-208.9,113.9-248.5s82.5-18.5,123.1-6.6c54.5,16,81.2,65.3,84.4,119.6l-89.2,7.2c-2.9-27.6-7.8-68.8-44-70-16.6-.6-31.6,6.7-42.7,19-29.5,32.7-47,95.1-51.2,138.7ZM3199.8,534.3c4.6-46.4,23-112.8,55.2-147,13.8-14.6,32.7-22.4,52.8-20.4,36.5,3.8,44.3,38.9,49,68.7l69.2-5.4c-7.8-64.8-45-101.9-110.1-107.4s-117.7,19.8-153.3,70.9c-36.7,52.7-50.5,120.8-36.2,183.8,9.8,43.2,41.9,74.3,83.7,84.8,29.1,7.3,58.8,6.8,87.8.2,52.8-12.1,90.3-53.4,107.5-104.4l-66.1-9.1c-7.3,18-14.8,33.9-26.7,48-15.9,19.5-39.6,29.4-64.5,25.4-42.3-6.8-51.9-51.6-48.3-88.1Z"/>
  <path class="st0" d="M6802,669.1l-97.8.9-40.5-128-41.6-.2-27.7,128.1h-96.1s74.2-349.7,74.2-349.7h162.6c21.2.2,40.8,5.1,59.4,13.4,28.8,13.1,46.2,38.9,49.4,70,6.4,62.2-33.8,106.1-92.6,123.6l50.8,141.9ZM6788.1,659.5l-46.2-129.2c-2.3-6.4,2.9-11.5,8.2-13.2,50.2-15.9,86.7-50.6,84.4-106.6-1.2-29.2-15.9-54.4-42.7-67-17.4-8.5-36.2-13-56.5-13.1l-154.6-.4-70.1,329.8h76.1s25.2-116.9,25.2-116.9c.8-7.6,6.3-11.6,13.7-11.5l37.3.2c5.6,0,9.3,3.4,10.9,8.7l37.8,119.6,76.7-.3Z"/>
  <path class="st0" d="M4092.6,669.1l-97.8.9-40.5-128-41.6-.2-27.7,128.1h-96.1s74.2-349.7,74.2-349.7h162.6c21.2.2,40.8,5.1,59.4,13.4,28.8,13.1,46.2,38.9,49.4,70,6.4,62.2-33.8,106.1-92.6,123.6l50.8,141.9ZM4078.6,659.5l-46.2-129.2c-2.3-6.4,2.9-11.5,8.2-13.2,50.2-15.9,86.7-50.6,84.4-106.6-1.2-29.2-15.9-54.4-42.7-67-17.4-8.5-36.2-13-56.5-13.1l-154.6-.4-70.1,329.8h76.1s25.2-116.9,25.2-116.9c.8-7.6,6.3-11.6,13.7-11.5l37.3.2c5.6,0,9.3,3.4,10.9,8.7l37.8,119.6,76.7-.3Z"/>
  <path class="st0" d="M5141.5,669.3l-98,.4-40.6-128-41.6.3-27.4,127.7-96.2-.2,74.3-349.5h161.5c20.7.1,39.9,4.7,58.1,12.4,30.9,13.2,49.5,40.5,52,73.9,4.7,62.8-36.2,103.3-92.9,121.1l50.9,141.9ZM5127.3,659.2l-46.1-128.5c-1.3-7.3,2.2-11.8,8.6-13.8,49.8-15.5,86.5-51.1,84-106.5s-17.2-56.2-45.5-68.4c-17.7-8-36.6-11.8-56.8-11.8h-151.6c0,0-70.1,329.5-70.1,329.5h76c0,.1,26.2-120.8,26.2-120.8,1-4.6,6-7.3,10.2-7.3h39.1c5.2-.1,9.7,2.6,11.3,7.7l38.4,120.8,76.4-.9Z"/>
  <path class="st0" d="M5392.9,597.2l-111.6-.3-36.6,73-88.4-.2,185.1-349.6h118.9s36.4,349.6,36.4,349.6l-97.8.3-6-72.8ZM5392.4,586.9c6.4,1,9.8,4.5,10.5,9.7l5,63.2h77.7c0,0-34.4-329.7-34.4-329.7h-104s-174.4,329.1-174.4,329.1l65.8.5,32.7-66.1c1.9-3.9,5.9-6.6,10.7-6.6h110.3Z"/>
  <path class="st0" d="M1790.7,597.6l-112-.7-36.2,72.8h-88.7s185.4-349.9,185.4-349.9l118.8.3,36.4,349.7h-98.1s-5.6-72.3-5.6-72.3ZM1790.7,587.2c5.7,0,9.4,5.1,9.7,9.4l5.4,63.4h77.5c0,0-34.3-329.8-34.3-329.8l-104.1.2-174.3,329,65.9.4,32.1-65.3c2.2-4.5,6.3-7.4,11.8-7.4l110.3.2Z"/>
  <path class="st0" d="M4708,669.5l-96.8.5,58.2-275.7-92.3-.4,15-73.7h284s-15.3,73.7-15.3,73.7l-94.3.2-58.5,275.5ZM4700.1,659.7l56.7-267.8c1.7-5.3,5.6-7.9,10.9-7.9l85.1-.3,11.2-53.5-263.9-.3-10.9,53.8,78.5.3c7.1,0,12.1,4.8,11.3,12.2l-55.7,263.2,76.7.2Z"/>
  <path class="st0" d="M3655.4,668.7c-80.5,25.4-180.5-.7-199-94.6-19.3-97.8,26.2-220.4,129.3-253.2,36.4-11.6,74.4-11.5,110.9-1.1,45.7,13.1,78.5,48.9,87.6,96.3,18.7,97.3-26,220.1-128.8,252.6ZM3740.6,590.5c33.8-51.8,46-116.7,32.7-177.1-17.7-80.1-103.9-103.2-174.5-85.8-105.3,25.9-152.7,149.9-131.9,247.6,9.3,43.9,41.6,75.9,84.1,86.6,74.1,18.8,147.2-6,189.8-71.3Z"/>
  <path class="st1" d="M3941.1,925h4.8s4.8,0,4.8,0h2204.4s489.7,0,489.7,0c2.2,0,3.5.4,3.8.9s-1.1,1.5-1.7,2.5l-58.8,51.7H833.9c24.8-18.4,51.5-33.9,75.4-55h3031.9Z"/>
  <path class="st2" d="M5108.1,834h-6.4s-4.1,0-4.1,0h-4s-4,0-4,0h-4s-4.1,0-4.1,0h-4.6s-1378.3,0-1378.3,0h-5.5s-2693.6,0-2693.6,0c-.7-1.8.4-3.3,1.6-4.8l1.7-2.1,1.7-2.2,1.8-2.3,1.7-2.3,1.7-2.3,1.6-2.2,1.7-2.3,1.7-2.4c-1.5,2.1,23.9-31.8,16.8-31.8h3302.8c0-.1,6.4,0,6.4,0h5s4,0,4,0h4s4,0,4,0h4s4,0,4,0h4s4,0,4,0h4.1s4.7,0,4.7,0h1738.3s4.6,0,4.6,0h4.5s616.8,0,616.8,0h4.5s4,0,4,0h4s4,0,4,0h4s4,0,4,0h4s4,0,4,0h4s4,0,4,0h4s4,0,4,0h4s4,0,4,0h4s4.1.1,4.1.1c1.6,0,2.4.2,4.1.8s.6.8-4,4.8l-56.9,49.4h-1646.5Z"/>
  <path class="st2" d="M6752.5,156c21.1,16.7,43.6,34.7,63,54.9H1041.2c-4.4,0-6.3-1-7.8-3.7-10.1-17.1-21.4-32.5-33.5-48.3-1.2-1.6-.5-2.2.2-2.5,1.3-.5,2.3-.5,5.1-.5h5747.3Z"/>
  <path class="st1" d="M921.2,65c-14.9,0-12.4-.1-20.4-6.8-21.2-17.6-43.5-32.3-66.3-46.3,1.2-1.9,2.1-1.9,4.7-1.9h2899.8s4.8,0,4.8,0h4.8s2836.8,0,2836.8,0c2.5,3.5,2.5,3.1,4.8,5.2l2.2,2,2.2,1.9,2.1,1.9,26.8,23,12,10.2,2.2,1.9,2.2,1.9,2.1,1.9c1.3,1.2,3.7,3.1,2.9,3.9-1.8,1.9-4.7,1.2-8.4,1.3H921.2Z"/>
  <path class="st2" d="M495.6,969.7c-136.4.2-265.7-58.6-354.9-159.1C-21.6,627.7-19.1,353.2,146,173.5,236.1,75.4,364.9,19.3,498.5,20.3c125.4.9,245.6,51.7,333.6,140.5,85.8,86.6,135.2,203.2,137.5,325.5,2.3,122.7-43.4,241.3-126.5,331.2-88.8,96.1-214.7,151.9-347.6,152.1ZM495.6,947.8c119.8-5,234-50.2,318-134.2,84.5-84.5,129.6-200,134.1-319.1-4.8-117.6-48.8-231.3-131.6-315.6-85.4-86.9-204-133.3-325.4-136.6-117.6,6.1-230.8,50.7-314.2,134.1S46.1,378.4,42.4,498.4c5.9,119,51.5,234,136.7,317.7,84.3,82.7,197.5,127,316.5,131.7Z"/>
  <path class="st2" d="M2288.6,420.1c1.6-7.5-2-12-5.7-13.3-5.3-1.8-10.3-.1-13.2,5.8l-120.8,246.9-64.4.2-16-242.9c-.3-5.1-4.7-8.8-7.8-9.5s-10.2.2-11.5,6l-52.8,246.3h-60.1c0,0,70.1-329.6,70.1-329.6h117.4c0-.1,12.4,221.9,12.4,221.9.9,5.6,3.2,9.3,7.2,10.1s8.8-.1,11.9-4.7l107.4-227.3h117.4s-70.1,329.7-70.1,329.7h-72.2s50.8-239.7,50.8-239.7Z"/>
  <path class="st2" d="M1462.7,533.7l-53.2-.6,9.3-45h136.5s-36.7,171.6-36.7,171.6h-52.3s2.9-33.3,2.9-33.3c.4-5.1-2.7-9.6-6.8-10.9s-10,1.1-12.9,5.5c-22,32.4-56.4,48.4-95,46.7-40.7-1.8-74.3-24.7-89.2-62.9-8-20.6-10.3-41.7-9.8-64.4,1.1-50.7,12.8-99.6,40.8-141.7,43-64.8,114.3-89.3,188.3-70.5,42.3,10.7,70.9,44.7,76.1,88.4l-67.4,4.2c-3.5-17.9-9.4-33.3-22.6-44.6-23.6-16.7-54.9-13-76.5,6.4-37.9,34-57.1,106.3-60.8,155.9-2.8,37,10.1,79.9,53.1,84.3,45.8,4.7,80.8-34.4,86.5-78.4.8-5.8-4.4-10.7-10.3-10.8Z"/>
  <path class="st2" d="M6083.3,472.9l63.8,186.6-82.5.3-40.7-127.6c-1.3-3.9-3.8-6.4-6.1-7.1-3.9-1.2-8.8-1.1-11.8,2l-54.6,56.9-16.3,75.9-76.5-.2,70.1-329.6h76.6c0,.1-30.4,144.2-30.4,144.2-1,4.9,1.6,9.6,4.5,11.1,3.1,1.6,8.8,2.3,12-1.3l133.4-154.1,76.5.9-115.6,129.8c-3.1,3.8-4.1,7.5-2.5,12.3Z"/>
  <path class="st2" d="M3033.3,636c-67.1,55.3-193.4,36.4-245.5-37.2l45.7-41.7c19,22,38.4,40.3,63.2,52.4,22.5,10.2,46.8,12.8,68.7,2.1,13.8-6.7,21.8-19.8,22-34,1-63-144.6-36.8-154.6-136.2-3.9-39,13.7-74.4,47-95.7,25.9-16.6,55.1-22.3,86.4-23.3,49.3-1.5,96.1,17.5,128.1,55.4l-42.3,39.3c-27.3-32.5-70.1-59.3-111.9-42.2-14.4,5.9-23.1,18.5-23.8,32.8-.7,15.5,8,28.6,22.4,36,41.5,21.2,122.5,34.8,131.5,98.7,5.1,36.6-8.6,70.3-36.9,93.6Z"/>
  <path class="st2" d="M4380.8,514.1l-123,.5c-4.6,0-9.6,2.6-10.6,7.2l-16.4,75.8c-.8,3.7-.4,7,1.2,9.5s5.3,4.9,9.9,4.9l140,.3-9.8,47.6h-231.1c0,0,70-329.7,70-329.7h231.1c0,.1-10.3,47.7-10.3,47.7l-146,.3c-6,0-9.7,4.2-10.8,9.3l-13.9,66.2c-1.5,6.9,3.1,13.2,10.8,13.2l118.3.3-9.4,47Z"/>
  <path class="st2" d="M6448.4,514.1l-123,.5c-4.6,0-9.6,2.6-10.6,7.2l-16.4,75.8c-.8,3.7-.4,7,1.2,9.5s5.3,4.9,9.9,4.9l140,.3-9.8,47.6h-231.1c0,0,70-329.7,70-329.7h231.1c0,.1-10.3,47.7-10.3,47.7l-146.1.3c-5,0-9.3,3.3-10.3,7.7l-14.3,67.7c-1.5,6.9,3.2,13.2,10.8,13.2l118.3.3-9.4,47Z"/>
  <path class="st2" d="M2622.1,514.2l-123.9.5c-4.7,0-8.9,3.5-9.8,7.9l-16.4,76c-1.5,7,3.2,13.3,10.5,13.4l140.5.2-9.8,47.8h-230.9c0-.1,70.1-329.9,70.1-329.9h230.6c0,0-9.7,47.8-9.7,47.8l-145,.2c-4.7,0-10.2,2.5-11.2,7.1l-14.6,69.4c-1.5,7.3,4.6,12.3,11.7,12.3l117.7.2-9.7,47.1Z"/>
  <path class="st2" d="M5613.3,534.3c-3.6,36.4,6,81.2,48.3,88.1,25,4,48.7-5.9,64.5-25.4,11.9-14,19.5-30,26.7-48l66.1,9.1c-17.2,51.1-54.7,92.3-107.5,104.4-29.1,6.7-58.7,7.2-87.8-.2-41.8-10.5-73.9-41.7-83.7-84.8-14.3-63-.5-131.1,36.2-183.8,35.6-51.1,92.1-76.1,153.3-70.9,65.1,5.6,102.3,42.7,110.1,107.4l-69.2,5.4c-4.7-29.9-12.5-64.9-49-68.7-20-2.1-39,5.8-52.8,20.4-32.2,34.2-50.6,100.6-55.2,147Z"/>
  <path class="st2" d="M3199.8,534.3c-3.6,36.4,6,81.2,48.3,88.1,25,4,48.6-5.9,64.5-25.4,11.9-14,19.5-30,26.7-48l66.1,9.1c-17.2,51.1-54.7,92.3-107.5,104.4-29.1,6.7-58.7,7.2-87.8-.2-41.8-10.5-73.9-41.7-83.7-84.8-14.3-63-.5-131.1,36.2-183.8,35.6-51.1,92.1-76.1,153.3-70.9s102.3,42.7,110.1,107.4l-69.2,5.4c-4.7-29.9-12.5-64.9-49-68.7-20-2.1-39,5.8-52.8,20.4-32.2,34.2-50.6,100.6-55.2,147Z"/>
  <path class="st2" d="M6788.1,659.5l-76.7.3-37.8-119.6c-1.7-5.3-5.3-8.7-10.9-8.7l-37.3-.2c-7.4,0-12.8,4-13.7,11.5l-25.2,116.9h-76.1s70.1-329.8,70.1-329.8l154.6.4c20.3,0,39.1,4.5,56.5,13.1,26.8,12.7,41.5,37.8,42.7,67,2.4,56-34.2,90.7-84.4,106.6-5.3,1.7-10.5,6.8-8.2,13.2l46.2,129.2ZM6697.4,485.8c35.2-4.7,56.8-31.5,56.3-65.5-.3-23.9-15.5-41.4-39.9-44.8-19-2.6-38.7-1.6-58.5-1.3s-8.7,4-9.6,8.3l-19.7,92.2c-1.1,5.3,2.4,12.1,8.4,12.2,20.7.5,41.6,1.6,62.9-1.2Z"/>
  <path class="st2" d="M4078.6,659.5l-76.7.3-37.8-119.6c-1.7-5.3-5.3-8.7-10.9-8.7l-37.3-.2c-7.4,0-12.8,4-13.7,11.5l-25.2,116.9h-76.1s70.1-329.8,70.1-329.8l154.6.4c20.3,0,39.1,4.5,56.5,13.1,26.8,12.7,41.5,37.8,42.7,67,2.4,56-34.2,90.7-84.4,106.6-5.3,1.7-10.5,6.8-8.2,13.2l46.2,129.2ZM3988,485.8c35.2-4.7,56.8-31.5,56.3-65.5-.3-23.9-15.5-41.4-39.9-44.8-19-2.6-38.7-1.6-58.5-1.3s-8.7,4-9.6,8.3l-19.7,92.2c-1.1,5.3,2.4,12.1,8.4,12.2,20.7.5,41.6,1.7,62.9-1.2Z"/>
  <path class="st2" d="M5127.3,659.2l-76.4.9-38.4-120.8c-1.6-5.1-6-7.8-11.3-7.8h-39.1c-4.2.1-9.2,2.8-10.2,7.4l-26.2,120.9h-76c0-.1,70.1-329.7,70.1-329.7h151.6c20.2,0,39.1,3.9,56.8,11.9,28.3,12.1,44.2,38,45.5,68.4,2.5,55.4-34.2,91-84,106.5-6.4,2-9.9,6.5-8.6,13.8l46.1,128.5ZM5036.3,485.9c35.4-4.6,57.2-31.3,56.8-65.4-.3-24-15.8-41.9-40.4-45s-39.2-1.7-59.1-1.1c-3.9.1-7.5,4-8.2,7.6l-19.8,92.5c-1.3,6.2,2.7,12.6,9.2,12.7,20.3.3,40.5,1.5,61.6-1.3Z"/>
  <path class="st2" d="M5392.4,586.9h-110.3c-4.8.1-8.8,2.9-10.7,6.7l-32.7,66.1-65.8-.5,174.4-329.1h104s34.4,329.6,34.4,329.6h-77.7c0,0-5-63.1-5-63.1-.7-5.3-4.1-8.8-10.5-9.7ZM5388.5,540.6c6.8,0,10.1-6.7,9.7-12.2l-9.5-129.1c-.4-5.1-5.2-8.5-8.4-9-4.6-.7-8.7,1.5-11.1,6.3l-64,129.3c-2,4.1-.5,8.3,1.2,10.6s5.2,4.4,9.1,4.4l72.9-.3Z"/>
  <path class="st2" d="M1790.7,587.2l-110.3-.2c-5.5,0-9.6,2.9-11.8,7.4l-32.1,65.3-65.9-.4,174.3-329,104.1-.2,34.3,329.8h-77.5c0,0-5.4-63.3-5.4-63.3-.4-4.3-4-9.4-9.7-9.4ZM1785.3,540.8c7.2,0,11.1-6.4,10.7-12.4l-9.4-127.7c-.4-6.1-4.8-10-9.3-10.3s-8.2,1.9-10.7,7l-64,129.2c-1.8,3.6,0,8.4,1.8,10.6s4.3,3.6,7.7,3.6h73.1Z"/>
  <path class="st2" d="M4700.1,659.7l-76.7-.2,55.7-263.2c.7-7.4-4.2-12.2-11.3-12.2l-78.5-.3,10.9-53.8,263.9.3-11.2,53.5-85.1.3c-5.3,0-9.3,2.6-10.9,7.9l-56.7,267.8Z"/>
  <path class="st2" d="M3740.6,590.5c-42.6,65.3-115.7,90.1-189.8,71.3-42.5-10.8-74.7-42.8-84.1-86.6-20.8-97.6,26.7-221.6,131.9-247.6,70.7-17.4,156.8,5.6,174.5,85.8,13.3,60.4,1.1,125.4-32.7,177.1ZM3591.9,623.4c20.7,2.1,39.2-5.7,53.4-19.7,32.7-32.2,51.2-105.5,54.5-151,2.1-28.2-3.4-67-31.4-80.4s-52.6-5.9-72,12.9c-34,32.8-52.1,104.6-56.1,151.1-3.1,36.2,6.7,82.6,51.5,87.2Z"/>
  <path class="st4" d="M495.6,947.8c-119-4.7-232.2-49-316.5-131.7-85.2-83.6-130.8-198.7-136.7-317.7,3.7-120,49-236.8,134.1-322S373.1,48.4,490.7,42.3c121.4,3.4,240,49.7,325.4,136.6,82.8,84.3,126.8,198,131.6,315.6-4.5,119-49.6,234.5-134.1,319.1-84,84-198.2,129.2-318,134.2ZM598.4,147.6c-88.4,13.6-145.9,96.6-132.1,182s94.6,144.2,179.9,131.4c86.9-13,146.8-94.4,133.4-181-13.3-85.6-92.9-146-181.2-132.4ZM475.7,414.8c-31.9-45.4-37.7-82-34.2-137-46.1-44-116.9-48.8-168.9-13-51.2,35.3-72.1,101.7-48.8,160.7,22.3,56.6,81.3,92.9,144.2,83.7,12.4-28.4,30.6-53.7,57.3-70.4,12.9-8,28.8-5.4,43.6-6.8s10-12.6,6.8-17.2ZM871.7,559.3c-10.6-32-30.3-87.5-65.4-100.1-22.9-8.3-47.5-5.5-69.6,3.5l-48.4,19.7c-42.8,17.5-88.4,16.8-131.1-1l-43.6-18.1c-21.4-8.9-45.2-11.8-67.9-5.6-36.5,10-58.5,66.6-68.8,99.5-9.8,31.4-15.6,61.9-21.6,94.6l-41.8,226.5c58.5,27.5,119.1,43.3,183,46,112-6.2,216.7-51.2,298.8-126.9,29.6-32.1,55.3-66.4,74.4-105.5,20.1-41.2,15.8-90.7,1.9-132.7ZM290.9,867.1l42-226c6.6-35.3,12.7-68.3,24.1-103.1-32.2.5-60.3-8.6-88.4-21.9s-47-15.7-71.7-9.6c-40.4,14.8-59.5,88.7-67.5,126.8-6.5,31-6.2,64,9.9,92.2,36.8,64.3,86.3,105.2,151.6,141.6Z"/>
  <path class="st3" d="M6697.4,485.8c-21.4,2.9-42.2,1.8-62.9,1.2s-9.5-7-8.4-12.2l19.7-92.2c.9-4.3,4.8-8.2,9.6-8.3,19.8-.3,39.4-1.3,58.5,1.3,24.4,3.3,39.5,20.9,39.9,44.8.5,33.9-21.2,60.7-56.3,65.5ZM6743.8,419.4c-1.6-45.8-58.3-34-88.3-35.1l-19.5,92.8c21.7,0,41.1,1.4,60.4-1.2,29.2-4,48.5-26.2,47.5-56.5Z"/>
  <path class="st3" d="M3988,485.8c-21.4,2.9-42.2,1.8-62.9,1.2-5.9-.2-9.5-7-8.4-12.2l19.7-92.2c.9-4.3,4.8-8.2,9.6-8.3,19.8-.3,39.4-1.3,58.5,1.3,24.4,3.3,39.5,20.9,39.9,44.8.5,33.9-21.2,60.7-56.3,65.5ZM4034.3,419.4c-1.6-45.8-58.3-34-88.3-35.1l-19.5,92.8c21.7,0,41.1,1.4,60.4-1.2,29.2-4,48.5-26.2,47.5-56.5Z"/>
  <path class="st0" d="M5036.3,485.9c-21.1,2.8-41.3,1.6-61.6,1.3-6.5,0-10.5-6.6-9.2-12.7l19.8-92.5c.8-3.5,4.3-7.4,8.2-7.6,20-.7,39.8-1.3,59.1,1.1s40.1,20.9,40.4,45c.5,34.1-21.4,60.8-56.8,65.4ZM5076.5,399.2c-14.8-21.7-59.2-14.2-81.8-14.6l-19.6,92.4c33.7-.1,82.3,7.4,100.6-26.4s11.3-36,.8-51.4Z"/>
  <path class="st0" d="M5388.5,540.6l-72.9.3c-3.9,0-7.2-1.8-9.1-4.4s-3.2-6.5-1.2-10.6l64-129.3c2.4-4.8,6.4-7.1,11.1-6.3s8,3.9,8.4,9l9.5,129.1c.4,5.5-2.9,12.2-9.7,12.2ZM5388.6,530.4l-10.2-128.8-64.3,129,74.5-.2Z"/>
  <path class="st0" d="M1785.3,540.8h-73.1c-3.4,0-6.5-2-7.7-3.6s-3.6-7-1.8-10.6l64-129.2c2.5-5,5.6-7.3,10.7-7s8.9,4.2,9.3,10.3l9.4,127.7c.4,6-3.4,12.4-10.7,12.4ZM1786.3,530.4l-10-129.3-64.6,129.5,74.7-.2Z"/>
  <path class="st0" d="M3591.9,623.4c-44.8-4.6-54.6-51-51.5-87.2,4-46.5,22.1-118.3,56.1-151.1,19.5-18.8,47.5-24.6,72-12.9s33.5,52.2,31.4,80.4c-3.4,45.5-21.9,118.9-54.5,151s-32.8,21.8-53.4,19.7ZM3609.1,612.6c20.6-4.4,35.1-18.9,45-36.7,24.2-43.4,45.5-118.6,31.7-167-6.5-23-27.6-36.1-51.7-32.1s-36,17.5-46.7,36c-25,43.3-46.8,119.3-32.7,168.3,6.8,23.7,28.7,37.1,54.3,31.6Z"/>
  <path class="st2" d="M871.7,559.3c13.9,42,18.2,91.6-1.9,132.7-19.1,39-44.7,73.3-74.4,105.5-82.1,75.7-186.8,120.7-298.8,126.9-63.9-2.7-124.5-18.5-183-46l41.8-226.5c6-32.7,11.8-63.2,21.6-94.6,10.2-32.9,32.2-89.5,68.8-99.5,22.7-6.2,46.4-3.3,67.9,5.6l43.6,18.1c42.7,17.7,88.3,18.4,131.1,1l48.4-19.7c22.1-9,46.7-11.8,69.6-3.5,35,12.7,54.7,68.1,65.4,100.1ZM701.8,790.4c10.2-61.7,53.1-103.4,114.6-112.6-58.8-6.9-105-49.9-114.6-112.3-8.2,61.2-54.5,104.6-113.3,112.5,62.4,9.1,105.2,54.2,113.3,112.4ZM632.2,590.8c6.7-9.7,14.4-13.3,19.4-22.7h-164.7c-7.6,7.3-14.9,13.5-21.1,22.7h166.5ZM567.9,657.9l20.2-22.7h-166.1c-6.8,8.1-14.1,13-20.4,22.7h166.2ZM588.3,721.6c-6.4-10.6-12.4-15-18.5-22.7l-165.7.3c6.4,9.5,12.4,15.3,19.2,22.8l165-.4ZM646.6,788.7c-5.5-9.8-12-14.9-18.6-22.7h-165.6c5.5,9,12.1,14.9,18.9,22.8l165.2-.2Z"/>
  <path class="st2" d="M598.4,147.6c88.3-13.6,167.9,46.8,181.2,132.4,13.5,86.6-46.5,168-133.4,181-85.3,12.8-166-45.7-179.9-131.4s43.7-168.3,132.1-182Z"/>
  <path class="st1" d="M290.9,867.1c-65.3-36.4-114.8-77.2-151.6-141.6-16.1-28.2-16.4-61.2-9.9-92.2,8-38.1,27.2-111.9,67.5-126.8,24.6-6.1,48.9-1.2,71.7,9.6s56.2,22.3,88.4,21.9c-11.4,34.8-17.6,67.8-24.1,103.1l-42,226Z"/>
  <path class="st1" d="M475.7,414.8c3.2,4.5-2.2,16.7-6.8,17.2-14.7,1.4-30.7-1.2-43.6,6.8-26.7,16.7-44.9,42-57.3,70.4-62.8,9.2-121.8-27.1-144.2-83.7-23.3-59-2.5-125.3,48.8-160.7,52-35.9,122.7-31,168.9,13-3.5,54.9,2.3,91.6,34.2,137Z"/>
  <path class="st4" d="M701.8,790.4c-8.1-58.2-50.8-103.3-113.3-112.4,58.8-7.9,105.1-51.4,113.3-112.5,9.5,62.4,55.8,105.5,114.6,112.3-61.6,9.2-104.4,51-114.6,112.6Z"/>
  <path class="st4" d="M588.3,721.6l-165,.4c-6.7-7.5-12.7-13.3-19.2-22.8l165.7-.3c6.1,7.7,12.1,12.1,18.5,22.7Z"/>
  <path class="st4" d="M567.9,657.9h-166.2c6.3-9.8,13.5-14.6,20.4-22.9h166.1c0,.1-20.2,22.9-20.2,22.9Z"/>
  <path class="st4" d="M632.2,590.8h-166.5c6.2-9.2,13.4-15.4,21.1-22.9h164.7c-5,9.5-12.6,13.2-19.4,22.9Z"/>
  <path class="st4" d="M646.6,788.7l-165.2.2c-6.9-8-13.4-13.9-18.9-22.8h165.6c6.6,7.7,13,12.8,18.6,22.6Z"/>
</svg>